<?xml version="1.0" encoding="UTF-8"?>
<svg id="Layer_1" data-name="Layer 1" xmlns="http://www.w3.org/2000/svg" xmlns:xlink="http://www.w3.org/1999/xlink" viewBox="0 0 562.52 332.88">
  <defs>
    <style>
      .cls-1 {
        clip-path: url(#clippath-2);
      }

      .cls-2 {
        clip-path: url(#clippath-1);
      }

      .cls-3 {
        fill: #396b83;
      }

      .cls-4 {
        clip-path: url(#clippath);
      }

      .cls-5 {
        fill: none;
      }

      .cls-6 {
        clip-path: url(#clippath-3);
      }
    </style>
    <clipPath id="clippath">
      <rect class="cls-5" x="401.62" width="160.89" height="159.03"/>
    </clipPath>
    <clipPath id="clippath-1">
      <rect class="cls-5" width="160.89" height="159.03"/>
    </clipPath>
    <clipPath id="clippath-2">
      <rect class="cls-5" x="165.19" width="232.13" height="256.54"/>
    </clipPath>
    <clipPath id="clippath-3">
      <rect class="cls-5" x="225.39" y="48.51" width="111.75" height="133.57"/>
    </clipPath>
  </defs>
  <g class="cls-4">
    <path class="cls-3" d="M512.4,99.88c.76,1.33,.29,3.02-1.04,3.78-1.33,.76-3.02,.29-3.78-1.04-14.12-24.91-38.18-30.53-65.28-15.3-1.09,.61-2.45,.42-3.33-.47-9.99-10.1-21.22-14.58-33.85-13.58-1.53,.12-2.86-1.02-2.98-2.55-.12-1.53,1.02-2.86,2.55-2.98,13.68-1.07,25.97,3.54,36.73,13.74,28.97-15.4,55.64-8.69,70.99,18.4Zm-8.69,16.1c1.22-.92,2.96-.68,3.88,.54s.68,2.96-.54,3.88c-24.76,18.72-49.04,18.91-72.1-.27-1.18-.98-1.34-2.73-.36-3.9,.98-1.18,2.73-1.34,3.9-.36,21.03,17.49,42.45,17.32,65.21,.11Zm-27.74-80.58c-1.01-1.15-.89-2.9,.25-3.91,1.15-1.01,2.9-.9,3.91,.25,11.24,12.8,14.33,28.33,12.53,49.24-.13,1.53-1.48,2.66-3,2.52s-2.66-1.48-2.52-3c1.69-19.55-1.12-33.66-11.17-45.11Zm2.31-10.87c.32-1.5,1.79-2.45,3.28-2.14,1.5,.32,2.46,1.79,2.14,3.28-.7,3.31-1.93,6.95-3.25,9.27l-1.27,1.16-31.36,14.11c-3.88,1.57-6.3-.21-8.92-4.31l-6.73-1.81c-3.36-1.11-5.25-4.7-4.8-8.72l4.7-25.48c.94-4.9,4.97-9.35,10.61-9.89l37.05,.69c4.84,.15,9.7,2.46,14.2,6.4,31.16,27.95,60.53,69.26,67.24,96.43,2.61,11.23,.91,23.84-4.52,34.85-.29,.59-.79,1.07-1.4,1.32-48.8,20.82-88.41,24.71-121.05,11.19l-9.03,4.69c-1.36,.71-3.03,.18-3.74-1.18-.71-1.36-.18-3.03,1.18-3.74l10.19-5.29c.74-.38,1.61-.41,2.37-.09,31.07,13.35,69.26,9.9,116.94-10.27,4.53-9.67,5.89-20.59,3.66-30.19-6.39-25.88-35.15-66.33-65.53-93.57-3.58-3.14-7.29-4.9-10.66-5l-36.7-.7c-2.62,.26-4.87,2.74-5.38,5.38l-4.67,25.26c-.15,1.39,.39,2.43,.91,2.6l7.64,2.06c.7,.19,1.29,.64,1.66,1.26,1.49,2.49,2.24,3.15,2.58,3.02l30.38-13.67c.87-1.81,1.73-4.49,2.24-6.91Z"/>
  </g>
  <g class="cls-2">
    <path class="cls-3" d="M50.11,99.88c-.76,1.33-.29,3.02,1.04,3.78,1.33,.76,3.02,.29,3.78-1.04,14.12-24.91,38.18-30.53,65.28-15.3,1.09,.61,2.45,.42,3.33-.47,9.99-10.1,21.21-14.58,33.85-13.58,1.53,.12,2.86-1.02,2.98-2.55,.12-1.53-1.02-2.86-2.55-2.98-13.68-1.07-25.97,3.54-36.73,13.74-28.97-15.4-55.64-8.69-70.99,18.4Zm8.69,16.1c-1.22-.92-2.96-.68-3.88,.54-.92,1.22-.68,2.96,.54,3.88,24.76,18.72,49.04,18.91,72.1-.27,1.18-.98,1.34-2.73,.36-3.9-.98-1.18-2.73-1.34-3.9-.36-21.03,17.49-42.45,17.32-65.21,.11Zm27.74-80.58c1.01-1.15,.9-2.9-.25-3.91-1.15-1.01-2.9-.9-3.91,.25-11.24,12.8-14.33,28.33-12.53,49.24,.13,1.53,1.48,2.66,3,2.52,1.53-.13,2.66-1.48,2.52-3-1.68-19.55,1.12-33.66,11.17-45.11Zm-2.31-10.87c-.31-1.5-1.78-2.45-3.28-2.14-1.5,.32-2.45,1.79-2.14,3.28,.7,3.31,1.93,6.95,3.25,9.27l1.27,1.16,31.35,14.11c3.89,1.57,6.3-.21,8.92-4.31l6.73-1.81c3.36-1.11,5.24-4.7,4.8-8.72l-4.7-25.48c-.94-4.9-4.97-9.35-10.61-9.89l-37.06,.69c-4.84,.15-9.7,2.46-14.2,6.4C37.4,35.03,8.02,76.35,1.31,103.51c-2.61,11.23-.92,23.84,4.52,34.85,.29,.59,.79,1.07,1.4,1.32,48.8,20.82,88.41,24.71,121.05,11.19l9.03,4.69c1.36,.71,3.03,.18,3.74-1.18,.71-1.36,.18-3.03-1.18-3.74l-10.19-5.29c-.74-.38-1.61-.41-2.37-.09-31.07,13.35-69.26,9.9-116.95-10.27-4.53-9.67-5.89-20.59-3.66-30.19C13.09,78.93,41.85,38.48,72.23,11.23c3.58-3.14,7.29-4.9,10.66-5l36.7-.7c2.62,.26,4.87,2.74,5.37,5.38l4.67,25.26c.15,1.39-.39,2.43-.91,2.6l-7.64,2.06c-.7,.19-1.29,.64-1.66,1.26-1.48,2.49-2.24,3.15-2.58,3.02l-30.38-13.67c-.87-1.81-1.73-4.49-2.24-6.91Z"/>
  </g>
  <g class="cls-1">
    <path class="cls-3" d="M281.25,256.48l-1.03-.31c-31.97-10-57.74-27.8-76.74-52.88-15.11-20-25.92-44.67-32.07-73.23-10.45-48.46-4.05-90.88-3.74-92.67l.31-2.1L281.2,.06l113.22,35.23,.31,2.1c.26,1.79,6.66,44.21-3.74,92.67-6.15,28.57-16.96,53.23-32.07,73.23-18.95,25.08-44.77,42.87-76.74,52.88l-.92,.31ZM174.08,40.47c-1.18,9.13-4.97,46.98,3.99,88.36,5.94,27.59,16.34,51.28,30.89,70.47,17.88,23.64,42.21,40.51,72.29,50.1,30.12-9.64,54.46-26.51,72.33-50.21,14.55-19.23,24.9-42.98,30.84-70.57,8.91-41.33,5.12-79.08,3.94-88.16L281.2,7.13l-107.12,33.34Z"/>
  </g>
  <g class="cls-6">
    <path class="cls-3" d="M325.81,98.59h-11.14v-22.26c0-15.37-12.46-27.83-27.84-27.83h-11.14c-15.38,0-27.84,12.46-27.84,27.83v22.26h-11.14c-6.12,0-11.14,5.01-11.14,11.13v61.22c0,6.12,5.01,11.13,11.14,11.13h89.09c6.12,0,11.14-5.01,11.14-11.13v-61.22c0-6.12-5.01-11.13-11.14-11.13Zm-38.98,42.98v18.24h-11.14v-18.24c-3.32-1.92-5.57-5.48-5.57-9.59,0-6.14,4.99-11.13,11.14-11.13s11.14,4.99,11.14,11.13c0,4.11-2.25,7.66-5.57,9.59Zm16.71-42.98h-44.55v-22.26c0-9.22,7.48-16.7,16.71-16.7h11.14c9.22,0,16.71,7.48,16.71,16.7v22.26Z"/>
  </g>
  <path class="cls-3" d="M156.03,278.78v38.12c0,5.2-1.43,9.16-4.29,11.89-2.85,2.73-6.94,4.09-12.26,4.09-1.42,0-2.81-.17-4.18-.52-1.38-.35-2.54-.76-3.48-1.26-.94-.49-1.79-.99-2.54-1.51-.75-.52-1.3-.95-1.64-1.3l-.58-.52,3.87-10.1c2.53,2.41,4.83,3.61,6.89,3.61,1.84,0,3.32-.61,4.43-1.83,1.12-1.23,1.68-3.11,1.68-5.64v-35.03h12.11Z"/>
  <path class="cls-3" d="M202.66,278.78l21.44,53.13h-13l-3.93-10.62h-20.22l-3.92,10.62h-13.01l21.45-53.13h11.21Zm.38,31.88l-5.93-15.45h-.12l-5.92,15.45h11.97Z"/>
  <path class="cls-3" d="M266.98,320.96c1.84,0,3.63-.28,5.37-.83,1.74-.56,3.02-1.09,3.83-1.61l1.23-.83,5.15,10.31c-.17,.13-.41,.3-.71,.52-.3,.21-1,.61-2.09,1.19-1.09,.58-2.26,1.08-3.51,1.51-1.24,.43-2.87,.82-4.89,1.16-2.02,.35-4.1,.52-6.25,.52-4.94,0-9.62-1.21-14.04-3.64-4.42-2.43-7.98-5.77-10.69-10.02-2.71-4.25-4.06-8.84-4.06-13.78,0-3.73,.79-7.32,2.38-10.76,1.59-3.44,3.71-6.37,6.34-8.82,2.64-2.45,5.72-4.4,9.24-5.86,3.52-1.46,7.13-2.19,10.82-2.19,3.44,0,6.6,.41,9.5,1.23,2.9,.81,4.95,1.63,6.15,2.44l1.8,1.23-5.15,10.31c-.3-.26-.75-.58-1.35-.94-.6-.36-1.8-.85-3.61-1.45-1.8-.6-3.63-.9-5.47-.9-2.92,0-5.54,.47-7.86,1.42-2.32,.95-4.15,2.19-5.51,3.74-1.35,1.54-2.38,3.2-3.09,4.99-.71,1.78-1.07,3.59-1.07,5.43,0,4.04,1.51,7.65,4.54,10.85,3.03,3.2,7.36,4.8,12.98,4.8Z"/>
  <path class="cls-3" d="M348.12,331.91h-16.69l-19.57-22.54v22.54h-12.1v-53.13h12.1v21.7l18.23-21.7h14.68l-21.38,25.18,24.73,27.95Z"/>
  <path class="cls-3" d="M393.38,278.78v10.63h-18.29v10.55h17.52v10.63h-17.52v10.69h18.29v10.62h-30.39v-53.13h30.39Z"/>
  <path class="cls-3" d="M412.89,278.78h15.39c7.38,0,13.69,2.52,18.92,7.57,5.24,5.05,7.86,11.37,7.86,18.96s-2.61,13.99-7.82,19.04c-5.22,5.04-11.53,7.56-18.96,7.56h-15.39v-53.13Zm12.1,42.32h1.87c4.42,0,8.03-1.49,10.84-4.47,2.81-2.99,4.24-6.74,4.29-11.25,0-4.51-1.41-8.26-4.22-11.26-2.81-3.01-6.45-4.51-10.91-4.51h-1.87v31.49Z"/>
</svg>